<svg width="434" height="116" viewBox="0 0 434 116" fill="none" xmlns="http://www.w3.org/2000/svg">
<path d="M417.071 69.122C417.071 70.6114 416.479 72.0399 415.426 73.0932C414.373 74.1464 412.944 74.7381 411.455 74.7381H347.37C345.881 74.7381 344.452 74.1464 343.399 73.0932C342.346 72.0399 341.754 70.6114 341.754 69.122V20.5458C341.754 19.0563 342.346 17.6278 343.399 16.5746C344.452 15.5214 345.881 14.9297 347.37 14.9297H411.455C412.192 14.9297 412.922 15.075 413.604 15.3572C414.285 15.6394 414.904 16.0531 415.426 16.5746C415.947 17.0961 416.361 17.7152 416.643 18.3966C416.925 19.078 417.071 19.8083 417.071 20.5458V69.122Z" fill="#8E7B70"/>
<path d="M387.33 50.8258C387.33 51.272 387.242 51.7139 387.072 52.1262C386.901 52.5385 386.651 52.9131 386.335 53.2286C386.02 53.5442 385.645 53.7945 385.233 53.9652C384.82 54.1359 384.378 54.2237 383.932 54.2236H345.153C344.707 54.2237 344.265 54.1359 343.852 53.9652C343.44 53.7945 343.065 53.5442 342.75 53.2286C342.434 52.9131 342.184 52.5385 342.013 52.1262C341.843 51.7139 341.755 51.272 341.755 50.8258V12.0463C341.755 11.6 341.843 11.1581 342.013 10.7459C342.184 10.3336 342.434 9.95893 342.75 9.64339C343.065 9.32785 343.44 9.07757 343.852 8.90685C344.265 8.73613 344.707 8.64833 345.153 8.64844H383.932C384.378 8.64833 384.82 8.73613 385.233 8.90685C385.645 9.07757 386.02 9.32785 386.335 9.64339C386.651 9.95893 386.901 10.3336 387.072 10.7459C387.242 11.1581 387.33 11.6 387.33 12.0463V50.8258Z" fill="#597B91"/>
<path d="M361.614 65.5078H218.047L211.081 94.407C211.081 94.407 219.019 101.361 258.726 101.361H361.615V65.5078H361.614Z" fill="#597B91"/>
<path d="M429.958 8.18745H404.031V4.64365C404.031 3.6499 403.636 2.69685 402.934 1.99416C402.231 1.29148 401.278 0.896714 400.284 0.896714H362.203C361.209 0.896714 360.256 1.29148 359.553 1.99416C358.851 2.69685 358.456 3.6499 358.456 4.64365V25.1383C309.56 0.686743 239.372 -4.02721 239.372 2.91528C239.372 12.0983 247.957 27.7415 237.318 37.6406H190.628C183.073 37.6406 176.582 41.9039 173.218 48.1115C161.513 48.6953 145.546 49.0265 123.133 49.0265C55.3373 49.0265 19.5025 73.379 19.5025 73.379V81.5445H6.37628C5.90799 81.5448 5.45895 81.7309 5.12783 82.062C4.7967 82.3932 4.61058 82.8422 4.61035 83.3105V95.1991C4.61035 96.1747 5.40071 96.965 6.37628 96.965H32.2241C32.6924 96.9648 33.1415 96.7787 33.4726 96.4475C33.8037 96.1164 33.9898 95.6674 33.9901 95.1991V82.4954H155.093C188.99 82.4954 200.613 97.7315 241.289 97.7315C243.683 97.7315 275.6 96.9915 284.388 95.4082C303.191 92.018 292.943 81.3115 340.567 81.3115L359.014 81.6521C359.682 82.7574 360.883 83.5034 362.268 83.5034H429.957C430.969 83.5029 431.938 83.101 432.653 82.3859C433.368 81.6709 433.77 80.7011 433.771 79.6898V12.0009C433.771 11.5002 433.672 11.0043 433.481 10.5417C433.289 10.079 433.008 9.65858 432.654 9.30445C432.3 8.95032 431.88 8.6694 431.417 8.47775C430.955 8.28609 430.459 8.18745 429.958 8.18745Z" fill="#46AAA8"/>
<path d="M106.513 83.5074C106.513 99.2504 93.7509 112.012 78.0078 112.012C62.2647 112.012 49.5029 99.2504 49.5029 83.5074C49.5029 67.7643 62.2647 55.0025 78.0078 55.0025C93.7509 55.0025 106.513 67.7651 106.513 83.5074ZM358.454 51.8359C340.962 51.8359 326.782 66.0162 326.782 83.5082C326.782 101 340.962 115.18 358.454 115.18C375.946 115.18 390.126 101 390.126 83.5082C390.126 66.0154 375.946 51.8359 358.454 51.8359Z" fill="white"/>
<path d="M194.378 37.6406H190.628C183.472 37.6406 177.274 41.4686 173.781 47.1471L154.637 46.9252L127.346 46.9081C117.353 47.0617 106.684 47.2478 95.9863 48.0006C90.6314 48.4018 85.2909 48.9258 80.0598 49.6265L64.8245 51.6545C59.9117 52.2212 55.0552 53.0543 50.4061 53.7874C45.8065 54.6691 41.4834 55.8094 37.5487 57.0086C33.6405 58.3392 30.0557 59.5794 27.0095 61.0773C23.8839 62.3619 21.3481 63.9699 19.187 65.1247C15.0304 67.6844 12.5526 69.8625 12.7054 69.7422C11.1196 71.1787 16.3209 76.9211 17.9067 75.4846C18.0467 75.3583 19.5105 73.9236 23.1729 71.4134C25.0754 70.3106 27.2647 68.7624 30.0992 67.4693C32.8219 65.9791 36.1046 64.6988 39.697 63.3024C43.3279 62.0333 47.3522 60.7897 51.6761 59.7731C56.0282 58.9128 60.6354 57.8886 65.6166 57.1725L80.7946 54.6606C85.9217 53.8071 91.1495 53.1268 96.3909 52.5669C106.893 51.4923 117.496 50.9691 127.438 50.5014L154.66 49.6556L174.182 49.263L221.259 96.3403C227.151 97.2006 233.714 97.7307 241.29 97.7307C242.209 97.7307 247.491 97.6206 254.134 97.397L194.378 37.6406Z" fill="#12294B"/>
<path d="M358.457 25.9375C345.441 25.9479 332.811 30.3608 322.622 38.4586C321.411 38.2017 320.113 37.9789 318.749 37.6981C316.5 37.2739 314.047 36.7498 311.465 36.4076L303.395 35.8972C300.684 35.7043 297.584 35.5011 294.658 35.5899L285.729 35.6258C273.762 35.7231 261.794 35.5916 252.819 35.9399C243.843 36.2429 237.859 36.8907 237.859 36.8907C237.812 36.8951 237.769 36.9169 237.737 36.9518C237.705 36.9867 237.687 37.0322 237.688 37.0793C237.687 37.1264 237.705 37.1719 237.737 37.2068C237.769 37.2416 237.812 37.2635 237.859 37.2679C237.859 37.2679 243.843 37.9157 252.819 38.2187C261.794 38.5678 273.761 38.4355 285.729 38.5328L294.658 38.5687C297.627 38.5047 300.311 38.7172 303.196 38.9383L311.263 39.5135L318.25 40.7153C320.408 41.1105 322.411 41.3315 324.141 41.8564L328.652 43.0147C331.15 43.6642 332.499 44.172 332.499 44.172C332.834 44.3025 333.208 44.2946 333.537 44.15C333.866 44.0053 334.124 43.7359 334.255 43.4009C334.385 43.0658 334.377 42.6927 334.233 42.3635C334.088 42.0343 333.819 41.7761 333.484 41.6456L333.454 41.6337C333.454 41.6337 332.008 41.0524 329.455 40.3244L325.938 39.3334C335.364 32.3993 346.757 28.6555 358.458 28.6474C388.7 28.6474 413.306 53.2534 413.306 83.4977H416.022C416.019 51.7581 390.194 25.9375 358.457 25.9375Z" fill="#597B91"/>
<path d="M274.151 96.4484C278.471 96.1548 282.17 95.8091 284.389 95.4088C291.877 94.0594 294.774 91.5484 298.538 89.016L241.334 31.8125C240.503 33.8925 239.23 35.8616 237.318 37.6412H215.344" fill="#12294B"/>
<path d="M33.136 100.025H3.06327C2.25084 100.025 1.47168 99.7023 0.89721 99.1278C0.322736 98.5533 0 97.7742 0 96.9617C0 96.1493 0.322736 95.3701 0.89721 94.7957C1.47168 94.2212 2.25084 93.8984 3.06327 93.8984H33.136C33.9485 93.8984 34.7276 94.2212 35.3021 94.7957C35.8766 95.3701 36.1993 96.1493 36.1993 96.9617C36.1993 97.7742 35.8766 98.5533 35.3021 99.1278C34.7276 99.7023 33.9485 100.025 33.136 100.025Z" fill="#597B91"/>
</svg>
