<svg width="50" height="50" viewBox="0 0 50 50" fill="none" xmlns="http://www.w3.org/2000/svg">
<path d="M25 1C38.2552 1 49 11.7448 49 25C49 38.2552 38.2552 49 25 49C11.7448 49 1 38.2552 1 25C1 11.7448 11.7448 1 25 1ZM26.7402 31.2666C25.6019 31.5828 24.3981 31.5828 23.2598 31.2666L22.5137 31.0596L22.127 31.7295L18.3145 38.3301L17.7461 39.3125L18.793 39.752C20.7582 40.5772 22.8685 41.0006 25 40.999C27.1985 40.999 29.298 40.5549 31.208 39.752L32.2529 39.3125L31.6855 38.3301L27.873 31.7295L27.4863 31.0596L26.7402 31.2666ZM9.12305 27C9.37323 28.9823 9.9925 30.899 10.9473 32.6514L11.1426 33C12.2083 34.8449 13.6323 36.4612 15.3311 37.749L16.2344 38.4346L16.8008 37.4521L20.6113 30.8525L20.999 30.1816L20.4453 29.6387C19.6015 28.8112 18.999 27.7692 18.7031 26.625L18.5098 25.875H8.98047L9.12305 27ZM31.2939 26.625C30.9983 27.7681 30.3973 28.8096 29.5547 29.6367L29.002 30.1787L29.3887 30.8496L33.1992 37.4502L33.7656 38.4316L34.6689 37.7471C36.261 36.5401 37.6123 35.0462 38.6533 33.3438L38.8574 33C39.9235 31.1545 40.6101 29.1145 40.877 27L41.0195 25.875H31.4883L31.2939 26.625ZM15.3311 12.2529C13.6327 13.5405 12.2086 15.1546 11.1426 17C10.0765 18.8455 9.38992 20.8855 9.12305 23L8.98047 24.125H18.5127L18.7061 23.375C19.0046 22.2176 19.6147 21.1808 20.4463 20.3623L20.998 19.8203L20.6113 19.1504L16.8008 12.5498L16.2344 11.5684L15.3311 12.2529ZM33.1992 12.5479L29.3887 19.1475L29.002 19.8184L29.5547 20.3613C30.3973 21.1885 30.9984 22.2298 31.2939 23.373L31.4883 24.1221H41.0195L40.877 22.9971C40.6101 20.8827 39.9234 18.8425 38.8574 16.9971C37.7914 15.1518 36.3672 13.5384 34.6689 12.251L33.7656 11.5654L33.1992 12.5479ZM25 9C22.8015 9 20.702 9.44509 18.792 10.248L17.7471 10.6875L18.3145 11.6699L22.127 18.2705L22.5137 18.9404L23.2598 18.7334C24.3981 18.4172 25.6019 18.4172 26.7402 18.7334L27.4863 18.9404L27.873 18.2705L31.6855 11.668L32.2539 10.6846L31.207 10.2451C29.2417 9.42077 27.1312 8.99759 25 9Z" fill="#2B3B47" stroke="black" stroke-width="2"/>
<circle cx="25.2189" cy="25.217" r="4.81855" fill="#FF473E"/>
</svg>
