<svg width="370" height="87" viewBox="0 0 370 87" fill="none" xmlns="http://www.w3.org/2000/svg">
<path d="M303.723 66.2729L319.23 50.7651M334.836 74.6088L329.161 53.4265M357.613 51.8318L336.43 46.1573M349.277 20.7188L333.769 36.2266M318.162 12.3828L323.84 33.5666M295.387 35.1583L316.567 40.8343" stroke="black" stroke-width="6" stroke-miterlimit="10" stroke-linecap="round"/>
<path d="M326.5 1C303.028 1 284 20.0275 284 43.5C284 66.9725 303.028 86 326.5 86C349.972 86 369 66.9725 369 43.5C369 20.0275 349.972 1 326.5 1ZM326.5 75.3282C308.923 75.3282 294.672 61.0773 294.672 43.5C294.672 25.9227 308.924 11.6718 326.5 11.6718C344.076 11.6718 358.328 25.9242 358.328 43.5C358.328 61.0758 344.076 75.3282 326.5 75.3282Z" fill="#3F3F3F"/>
<path d="M326.499 33.2188C323.773 33.2188 321.158 34.3019 319.23 36.2299C317.302 38.1579 316.219 40.7728 316.219 43.4995C316.219 46.2261 317.302 48.841 319.23 50.769C321.158 52.697 323.773 53.7802 326.499 53.7802C329.226 53.7802 331.841 52.697 333.769 50.769C335.697 48.841 336.78 46.2261 336.78 43.4995C336.78 40.7728 335.697 38.1579 333.769 36.2299C331.841 34.3019 329.226 33.2188 326.499 33.2188ZM326.499 48.0646C325.289 48.0646 324.128 47.5836 323.271 46.7275C322.415 45.8714 321.934 44.7102 321.934 43.4995C321.934 42.2887 322.415 41.1275 323.271 40.2714C324.128 39.4153 325.289 38.9343 326.499 38.9343C327.71 38.9343 328.871 39.4153 329.728 40.2714C330.584 41.1275 331.065 42.2887 331.065 43.4995C331.065 44.7102 330.584 45.8714 329.728 46.7275C328.871 47.5836 327.71 48.0646 326.499 48.0646Z" fill="#3F3F3F"/>
<path d="M326.5 86C349.972 86 369 66.9721 369 43.5C369 20.0279 349.972 1 326.5 1C303.028 1 284 20.0279 284 43.5C284 66.9721 303.028 86 326.5 86Z" stroke="black" stroke-width="0.666667" stroke-miterlimit="10"/>
<path d="M326.5 75.9128C344.4 75.9128 358.91 61.4025 358.91 43.5033C358.91 25.604 344.4 11.0938 326.5 11.0938C308.601 11.0938 294.091 25.604 294.091 43.5033C294.091 61.4025 308.601 75.9128 326.5 75.9128Z" stroke="black" stroke-width="0.666667" stroke-miterlimit="10"/>
<path d="M326.501 53.7802C332.179 53.7802 336.782 49.1773 336.782 43.4995C336.782 37.8216 332.179 33.2188 326.501 33.2188C320.824 33.2188 316.221 37.8216 316.221 43.4995C316.221 49.1773 320.824 53.7802 326.501 53.7802Z" stroke="black" stroke-width="0.666667" stroke-miterlimit="10"/>
<path d="M326.502 48.0756C329.023 48.0756 331.067 46.0317 331.067 43.5105C331.067 40.9892 329.023 38.9453 326.502 38.9453C323.98 38.9453 321.937 40.9892 321.937 43.5105C321.937 46.0317 323.98 48.0756 326.502 48.0756Z" stroke="black" stroke-width="0.666667" stroke-miterlimit="10"/>
<path d="M19.0987 65.8974L33.3294 51.6667M47.6494 73.5468L42.4423 54.109M68.5507 52.6455L49.1129 47.4384M60.9013 24.0948L46.6706 38.3255M32.3491 16.4453L37.5591 35.8846M11.4492 37.3452L30.8857 42.5538" stroke="black" stroke-width="6" stroke-miterlimit="10" stroke-linecap="round"/>
<path d="M40 6C18.4606 6 1 23.4606 1 45C1 66.5394 18.4606 84 40 84C61.5394 84 79 66.5394 79 45C79 23.4606 61.5394 6 40 6ZM40 74.2071C23.8702 74.2071 10.7929 61.1298 10.7929 45C10.7929 28.8702 23.8716 15.7929 40 15.7929C56.1284 15.7929 69.2071 28.8716 69.2071 45C69.2071 61.1284 56.1284 74.2071 40 74.2071Z" fill="#3F3F3F"/>
<path d="M39.9995 35.5625C37.4974 35.5625 35.0978 36.5564 33.3286 38.3257C31.5594 40.0949 30.5654 42.4945 30.5654 44.9966C30.5654 47.4986 31.5594 49.8982 33.3286 51.6675C35.0978 53.4367 37.4974 54.4306 39.9995 54.4306C42.5016 54.4306 44.9012 53.4367 46.6704 51.6675C48.4396 49.8982 49.4336 47.4986 49.4336 44.9966C49.4336 42.4945 48.4396 40.0949 46.6704 38.3257C44.9012 36.5564 42.5016 35.5625 39.9995 35.5625ZM39.9995 49.1858C38.8885 49.1858 37.8229 48.7444 37.0373 47.9588C36.2517 47.1731 35.8103 46.1076 35.8103 44.9966C35.8103 43.8855 36.2517 42.82 37.0373 42.0344C37.8229 41.2487 38.8885 40.8074 39.9995 40.8074C41.1105 40.8074 42.1761 41.2487 42.9617 42.0344C43.7473 42.82 44.1887 43.8855 44.1887 44.9966C44.1887 46.1076 43.7473 47.1731 42.9617 47.9588C42.1761 48.7444 41.1105 49.1858 39.9995 49.1858Z" fill="#3F3F3F"/>
<path d="M40 84C61.5391 84 79 66.5391 79 45C79 23.4609 61.5391 6 40 6C18.4609 6 1 23.4609 1 45C1 66.5391 18.4609 84 40 84Z" stroke="black" stroke-width="0.666667" stroke-miterlimit="10"/>
<path d="M40.0002 74.7466C56.4255 74.7466 69.7407 61.4313 69.7407 45.0061C69.7407 28.5809 56.4255 15.2656 40.0002 15.2656C23.575 15.2656 10.2598 28.5809 10.2598 45.0061C10.2598 61.4313 23.575 74.7466 40.0002 74.7466Z" stroke="black" stroke-width="0.666667" stroke-miterlimit="10"/>
<path d="M40.0014 54.4306C45.2117 54.4306 49.4355 50.2069 49.4355 44.9966C49.4355 39.7863 45.2117 35.5625 40.0014 35.5625C34.7912 35.5625 30.5674 39.7863 30.5674 44.9966C30.5674 50.2069 34.7912 54.4306 40.0014 54.4306Z" stroke="black" stroke-width="0.666667" stroke-miterlimit="10"/>
<path d="M40.0017 49.1987C42.3153 49.1987 44.1909 47.3231 44.1909 45.0095C44.1909 42.6959 42.3153 40.8203 40.0017 40.8203C37.6881 40.8203 35.8125 42.6959 35.8125 45.0095C35.8125 47.3231 37.6881 49.1987 40.0017 49.1987Z" stroke="black" stroke-width="0.666667" stroke-miterlimit="10"/>
</svg>
