<svg width="50" height="50" viewBox="0 0 50 50" fill="none" xmlns="http://www.w3.org/2000/svg">
<path d="M26.0551 44.5689H23.946V5.4375H26.0551V44.5689ZM39.5817 11.9134L38.0905 10.4223L10.4199 38.0929L11.911 39.5841L39.5817 11.9134Z" fill="#597B91"/>
<path d="M44.5659 26.0492H5.43457V23.9401H44.5659V26.0492ZM39.5811 38.0847L11.9105 10.4141L10.4194 11.9052L38.09 39.5758L39.5811 38.0847Z" fill="#597B91"/>
<path d="M25 1C38.2332 1 49 11.7673 49 25C49 38.2327 38.2327 49 25 49C11.7673 49 1 38.2327 1 25C1.00001 11.7673 11.7673 1 25 1ZM25 11.0537C17.298 11.0537 11.0537 17.2974 11.0537 25C11.0537 32.7026 17.2974 38.9463 25 38.9463C32.7026 38.9463 38.9463 32.7026 38.9463 25C38.9463 17.2974 32.7026 11.0537 25 11.0537Z" fill="#2B3B47" stroke="black" stroke-width="2"/>
<circle cx="25.0194" cy="24.4061" r="4.01546" fill="#FF473E"/>
</svg>
