<svg width="358" height="81" viewBox="0 0 358 81" fill="none" xmlns="http://www.w3.org/2000/svg">
<path d="M17.473 61.8269L15.0592 59.4131L55.3716 19.1016L57.7853 21.5153L17.473 61.8269ZM64.9267 38.7563H7.91699V42.1704H64.9267V38.7563Z" fill="#597B91"/>
<path d="M38.1292 68.9698H34.7152V11.9609H38.1292V68.9698ZM57.7857 59.4138L17.4733 19.1023L15.0596 21.516L55.372 61.8276L57.7857 59.4138Z" fill="#597B91"/>
<path d="M36.4221 21.6071C46.8392 21.6071 55.2839 30.0518 55.2839 40.4689C55.2839 50.8861 46.8392 59.3308 36.4221 59.3308C26.0049 59.3308 17.5602 50.8861 17.5602 40.4689C17.5602 30.0518 26.0049 21.6071 36.4221 21.6071ZM36.4221 4.04688C16.3388 4.04688 0 20.3857 0 40.4689C0 60.5522 16.3388 76.891 36.4221 76.891C56.5053 76.891 72.8441 60.5522 72.8441 40.4689C72.8441 20.3857 56.5053 4.04688 36.4221 4.04688Z" fill="#2B3B47"/>
<path d="M318.576 72.1405H315.162V8.79688H318.576V72.1405ZM340.472 19.2798L338.058 16.866L293.267 61.6577L295.68 64.0714L340.472 19.2798Z" fill="#597B91"/>
<path d="M348.541 42.1687H285.197V38.7546H348.541V42.1687ZM340.472 61.651L295.68 16.8594L293.266 19.2731L338.058 64.0648L340.472 61.651Z" fill="#597B91"/>
<path d="M316.869 19.5114C328.444 19.5114 337.826 28.8941 337.826 40.4686C337.826 52.0431 328.444 61.4258 316.869 61.4258C305.294 61.4258 295.912 52.0431 295.912 40.4686C295.912 28.8941 305.295 19.5114 316.869 19.5114ZM316.869 0C294.555 0 276.4 18.1543 276.4 40.4686C276.4 62.7829 294.555 80.9372 316.869 80.9372C339.183 80.9372 357.338 62.7829 357.338 40.4686C357.338 18.1543 339.184 0 316.869 0Z" fill="#2B3B47"/>
<path d="M43.3357 40.4621C43.3357 42.2956 42.6074 44.0541 41.3108 45.3506C40.0143 46.6471 38.2558 47.3755 36.4223 47.3755C34.5887 47.3755 32.8302 46.6471 31.5337 45.3506C30.2372 44.0541 29.5088 42.2956 29.5088 40.4621C29.5088 38.6285 30.2372 36.87 31.5337 35.5735C32.8302 34.277 34.5887 33.5486 36.4223 33.5486C38.2558 33.5486 40.0143 34.277 41.3108 35.5735C42.6074 36.87 43.3357 38.6285 43.3357 40.4621ZM316.869 32.7812C314.831 32.7812 312.878 33.5906 311.437 35.0312C309.996 36.4717 309.187 38.4256 309.187 40.4629C309.187 42.5002 309.996 44.4541 311.437 45.8946C312.878 47.3352 314.831 48.1445 316.869 48.1445C318.906 48.1445 320.86 47.3352 322.3 45.8946C323.741 44.4541 324.55 42.5002 324.55 40.4629C324.55 38.4256 323.741 36.4717 322.3 35.0312C320.86 33.5906 318.906 32.7812 316.869 32.7812Z" fill="#FF473E"/>
</svg>
