<svg width="363" height="90" viewBox="0 0 363 90" fill="none" xmlns="http://www.w3.org/2000/svg">
<path d="M318 0C306.065 0 294.619 4.74106 286.18 13.1802C277.741 21.6193 273 33.0653 273 45C273 56.9347 277.741 68.3807 286.18 76.8198C294.619 85.2589 306.065 90 318 90C323.909 90 329.761 88.836 335.221 86.5746C340.68 84.3131 345.641 80.9984 349.82 76.8198C353.998 72.6412 357.313 67.6804 359.575 62.2208C361.836 56.7611 363 50.9095 363 45C363 39.0905 361.836 33.2389 359.575 27.7792C357.313 22.3196 353.998 17.3588 349.82 13.1802C345.641 9.00156 340.68 5.68688 335.221 3.42542C329.761 1.16396 323.909 0 318 0ZM318 15.7021C334.16 15.7021 347.298 28.8396 347.298 45C347.298 61.1604 334.16 74.2979 318 74.2979C301.84 74.2979 288.702 61.1604 288.702 45C288.702 28.8396 301.84 15.7021 318 15.7021ZM318 19.1489C314.09 19.1489 310.387 20.0145 307.068 21.5621C309.279 27.8583 313.063 35.8085 318 35.8085C322.945 35.8085 326.603 27.833 328.867 21.532C325.565 20.0034 321.884 19.1489 318 19.1489ZM336.91 27.36C331.603 31.4087 325.202 37.4687 326.728 42.1673C328.257 46.871 336.975 47.8848 343.667 48.0912C343.788 47.0775 343.851 46.0465 343.851 45C343.851 38.1749 341.217 31.9764 336.91 27.36ZM299.047 27.4065C294.765 32.0178 292.149 38.1977 292.149 45C292.149 46.0628 292.214 47.1098 292.338 48.1385C299.008 47.9805 307.73 46.8377 309.255 42.1449C310.782 37.4454 304.338 31.5071 299.047 27.4065ZM312.487 35.7637C312.14 35.7735 311.804 35.8879 311.523 36.0919C311.153 36.3606 310.906 36.7651 310.834 37.2165C310.763 37.6679 310.873 38.1292 311.142 38.4989C311.411 38.8687 311.815 39.1166 312.266 39.1882C312.718 39.2598 313.179 39.1491 313.549 38.8806C313.732 38.7476 313.887 38.5798 314.006 38.3868C314.124 38.1938 314.203 37.9794 314.238 37.7559C314.274 37.5323 314.265 37.304 314.212 37.0839C314.159 36.8638 314.064 36.6563 313.93 36.4732C313.766 36.2465 313.548 36.0634 313.297 35.9398C313.045 35.8161 312.767 35.7557 312.487 35.7637ZM323.513 35.7637C323.472 35.7625 323.431 35.7628 323.391 35.7645C323.131 35.7754 322.878 35.8448 322.649 35.9675C322.42 36.0902 322.222 36.263 322.07 36.473C321.936 36.6561 321.841 36.8636 321.788 37.0837C321.735 37.3039 321.726 37.5322 321.762 37.7558C321.797 37.9794 321.876 38.1938 321.994 38.3868C322.113 38.5798 322.268 38.7476 322.451 38.8806C322.821 39.1491 323.282 39.2598 323.733 39.1883C324.185 39.1168 324.589 38.8689 324.858 38.4991C325.127 38.1294 325.237 37.6681 325.166 37.2167C325.094 36.7653 324.847 36.3608 324.477 36.0921C324.196 35.888 323.86 35.7735 323.513 35.7637ZM318 38.8723C316.375 38.8723 314.816 39.5179 313.667 40.6671C312.518 41.8163 311.872 43.3748 311.872 45C311.872 46.6252 312.518 48.1838 313.667 49.3329C314.816 50.4821 316.375 51.1277 318 51.1277C319.625 51.1277 321.184 50.4821 322.333 49.3329C323.482 48.1838 324.128 46.6252 324.128 45C324.128 43.3748 323.482 41.8163 322.333 40.6671C321.184 39.5179 319.625 38.8723 318 38.8723ZM309.135 46.156C308.962 46.1585 308.791 46.1869 308.627 46.2403C308.412 46.3102 308.212 46.4218 308.04 46.5688C307.868 46.7158 307.726 46.8952 307.624 47.0969C307.521 47.2985 307.459 47.5185 307.441 47.7441C307.423 47.9698 307.45 48.1967 307.52 48.412C307.661 48.8466 307.969 49.2074 308.377 49.4149C308.784 49.6224 309.257 49.6596 309.691 49.5184C309.907 49.4485 310.106 49.3369 310.278 49.1899C310.45 49.0429 310.592 48.8635 310.695 48.6619C310.797 48.4602 310.859 48.2403 310.877 48.0147C310.895 47.7891 310.868 47.5622 310.798 47.3469C310.685 46.9967 310.462 46.6922 310.162 46.4779C309.863 46.2636 309.503 46.1508 309.135 46.156ZM326.916 46.1576C326.539 46.1412 326.168 46.2486 325.858 46.4634C325.549 46.6782 325.318 46.9884 325.202 47.3467C325.132 47.562 325.105 47.7889 325.123 48.0145C325.141 48.2401 325.203 48.46 325.305 48.6617C325.408 48.8633 325.55 49.0427 325.722 49.1897C325.894 49.3367 326.093 49.4483 326.309 49.5182C326.743 49.6594 327.216 49.6222 327.623 49.4147C328.031 49.2073 328.339 48.8466 328.48 48.412C328.55 48.1967 328.577 47.9698 328.559 47.7441C328.541 47.5185 328.479 47.2985 328.376 47.0969C328.274 46.8952 328.132 46.7158 327.96 46.5688C327.788 46.4218 327.588 46.3102 327.373 46.2403C327.225 46.1922 327.071 46.1643 326.916 46.1576ZM309.271 51.4643C305.137 51.4842 299.651 54.6875 295.403 57.5782C299.047 64.121 305.448 68.9074 313.047 70.3767C314.96 63.9829 316.574 55.3222 312.579 52.4194C311.649 51.7441 310.523 51.4582 309.271 51.4643ZM326.7 51.4681C325.44 51.4681 324.308 51.7584 323.378 52.4336C319.377 55.3406 321.107 63.9433 322.978 70.372C330.578 68.8946 336.978 64.0988 340.615 57.5473C336.401 54.6321 330.861 51.4681 326.7 51.4679V51.4681ZM318 52.5791C317.543 52.5791 317.105 52.7607 316.781 53.0839C316.458 53.4071 316.277 53.8455 316.277 54.3026C316.277 54.7596 316.458 55.198 316.781 55.5212C317.105 55.8444 317.543 56.026 318 56.026C318.457 56.026 318.895 55.8444 319.219 55.5212C319.542 55.198 319.723 54.7596 319.723 54.3026C319.723 53.8455 319.542 53.4071 319.219 53.0839C318.895 52.7607 318.457 52.5791 318 52.5791Z" fill="black"/>
<path d="M361.696 44.3478C361.696 68.8405 341.84 88.6957 317.348 88.6957C292.855 88.6957 273 68.8405 273 44.3478C273 19.8552 292.855 0 317.348 0C341.84 0 361.696 19.8552 361.696 44.3478ZM286.129 44.3478C286.129 61.5894 300.106 75.5665 317.348 75.5665C334.589 75.5665 348.566 61.5894 348.566 44.3478C348.566 27.1062 334.589 13.1292 317.348 13.1292C300.106 13.1292 286.129 27.1062 286.129 44.3478Z" fill="#464646"/>
<path d="M36.5 9C26.8196 9 17.5357 12.8455 10.6906 19.6906C3.84552 26.5357 0 35.8196 0 45.5C0 55.1804 3.84552 64.4643 10.6906 71.3094C17.5357 78.1545 26.8196 82 36.5 82C41.2933 82 46.0396 81.0559 50.4679 79.2216C54.8963 77.3873 58.9201 74.6987 62.3094 71.3094C65.6987 67.9201 68.3873 63.8963 70.2216 59.4679C72.0559 55.0396 73 50.2933 73 45.5C73 40.7068 72.0559 35.9604 70.2216 31.5321C68.3873 27.1037 65.6987 23.0799 62.3094 19.6906C58.9201 16.3013 54.8963 13.6127 50.4679 11.7784C46.0396 9.9441 41.2933 9 36.5 9ZM36.5 21.7362C49.6078 21.7362 60.2638 32.3922 60.2638 45.5C60.2638 58.6078 49.6078 69.2638 36.5 69.2638C23.3922 69.2638 12.7362 58.6078 12.7362 45.5C12.7362 32.3922 23.3922 21.7362 36.5 21.7362ZM36.5 24.5319C33.3288 24.5319 30.325 25.234 27.6328 26.4892C29.4263 31.5961 32.4956 38.0447 36.5 38.0447C40.5108 38.0447 43.4779 31.5756 45.3147 26.4649C42.6359 25.225 39.6505 24.5319 36.5 24.5319ZM51.8381 31.192C47.5336 34.4759 42.3416 39.3913 43.5798 43.2024C44.8194 47.0176 51.8906 47.8399 57.3191 48.0073C57.4167 47.1851 57.4681 46.3488 57.4681 45.5C57.4681 39.9641 55.3317 34.9364 51.8381 31.192ZM21.127 31.2297C17.654 34.97 15.5319 39.9826 15.5319 45.5C15.5319 46.362 15.5847 47.2113 15.6854 48.0457C21.0956 47.9175 28.1701 46.9906 29.4069 43.1842C30.6454 39.3723 25.4183 34.5557 21.127 31.2297ZM32.0285 38.0083C31.747 38.0163 31.4744 38.1091 31.2465 38.2746C30.9466 38.4925 30.7456 38.8206 30.6877 39.1867C30.6297 39.5529 30.7195 39.927 30.9374 40.2269C31.1553 40.5268 31.4833 40.7279 31.8495 40.786C32.2156 40.844 32.5898 40.7543 32.8898 40.5365C33.0383 40.4286 33.1641 40.2925 33.2601 40.136C33.356 39.9794 33.4202 39.8055 33.4489 39.6242C33.4776 39.4429 33.4704 39.2577 33.4275 39.0792C33.3847 38.9006 33.3071 38.7323 33.1992 38.5838C33.0655 38.3999 32.8891 38.2514 32.6851 38.1511C32.4811 38.0509 32.2557 38.0019 32.0285 38.0083ZM40.9715 38.0083C40.9385 38.0074 40.9055 38.0076 40.8725 38.009C40.6622 38.0178 40.4565 38.0741 40.2709 38.1737C40.0854 38.2732 39.9247 38.4133 39.8008 38.5836C39.6929 38.7322 39.6153 38.9005 39.5724 39.079C39.5296 39.2576 39.5223 39.4428 39.551 39.6241C39.5797 39.8055 39.6439 39.9794 39.7399 40.1359C39.8358 40.2925 39.9617 40.4286 40.1102 40.5365C40.4102 40.7543 40.7844 40.8441 41.1505 40.7861C41.5166 40.728 41.8447 40.527 42.0626 40.2271C42.2805 39.9272 42.3703 39.553 42.3123 39.1869C42.2544 38.8208 42.0534 38.4926 41.7535 38.2747C41.5256 38.1092 41.253 38.0163 40.9715 38.0083ZM36.5 40.5298C35.1818 40.5298 33.9176 41.0534 32.9855 41.9855C32.0534 42.9176 31.5298 44.1818 31.5298 45.5C31.5298 46.8182 32.0534 48.0824 32.9855 49.0145C33.9176 49.9466 35.1818 50.4702 36.5 50.4702C37.8182 50.4702 39.0824 49.9466 40.0145 49.0145C40.9466 48.0824 41.4702 46.8182 41.4702 45.5C41.4702 44.1818 40.9466 42.9176 40.0145 41.9855C39.0824 41.0534 37.8182 40.5298 36.5 40.5298ZM29.3092 46.4377C29.1692 46.4397 29.0304 46.4627 28.8973 46.506C28.7227 46.5627 28.5609 46.6532 28.4213 46.7725C28.2817 46.8917 28.1669 47.0372 28.0836 47.2008C28.0002 47.3644 27.9499 47.5428 27.9354 47.7258C27.921 47.9088 27.9428 48.0929 27.9995 48.2675C28.1141 48.62 28.364 48.9126 28.6943 49.0809C29.0247 49.2492 29.4083 49.2794 29.7609 49.1649C29.9355 49.1082 30.0972 49.0177 30.2368 48.8985C30.3764 48.7793 30.4912 48.6337 30.5745 48.4702C30.6579 48.3066 30.7082 48.1283 30.7226 47.9452C30.7371 47.7622 30.7153 47.5782 30.6586 47.4036C30.5664 47.1196 30.3856 46.8725 30.1427 46.6987C29.8999 46.5249 29.6078 46.4334 29.3092 46.4377ZM43.7315 46.4389C43.4262 46.4256 43.125 46.5128 42.874 46.687C42.6229 46.8612 42.4358 47.1128 42.3414 47.4034C42.2847 47.578 42.2629 47.7621 42.2774 47.9451C42.2918 48.1281 42.3421 48.3065 42.4255 48.47C42.5088 48.6336 42.6236 48.7791 42.7632 48.8983C42.9028 49.0175 43.0645 49.1081 43.2391 49.1648C43.5917 49.2793 43.9753 49.2491 44.3056 49.0808C44.6359 48.9126 44.8859 48.62 45.0005 48.2675C45.0572 48.0929 45.079 47.9088 45.0646 47.7258C45.0501 47.5428 44.9998 47.3644 44.9164 47.2008C44.8331 47.0372 44.7183 46.8917 44.5787 46.7725C44.4391 46.6532 44.2773 46.5627 44.1027 46.506C43.9826 46.467 43.8577 46.4444 43.7315 46.4389ZM29.4199 50.7433C26.0666 50.7594 21.6167 53.3576 18.1711 55.7023C21.1267 61.0092 26.3191 64.8916 32.4827 66.0834C34.0343 60.8973 35.3437 53.8725 32.1028 51.518C31.3488 50.9702 30.4351 50.7383 29.4199 50.7433ZM43.5565 50.7464C42.5345 50.7464 41.6162 50.9818 40.8623 51.5295C37.6169 53.8874 39.0197 60.8651 40.538 66.0795C46.7021 64.8812 51.8931 60.9912 54.8429 55.6773C51.4249 53.3127 46.9317 50.7464 43.5565 50.7462V50.7464ZM36.5 51.6475C36.1293 51.6475 35.7737 51.7948 35.5116 52.057C35.2494 52.3191 35.1021 52.6747 35.1021 53.0454C35.1021 53.4161 35.2494 53.7717 35.5116 54.0339C35.7737 54.296 36.1293 54.4433 36.5 54.4433C36.8707 54.4433 37.2263 54.296 37.4884 54.0339C37.7506 53.7717 37.8979 53.4161 37.8979 53.0454C37.8979 52.6747 37.7506 52.3191 37.4884 52.057C37.2263 51.7948 36.8707 51.6475 36.5 51.6475Z" fill="black"/>
<path d="M71.942 44.971C71.942 64.8373 55.8373 80.942 35.971 80.942C16.1048 80.942 0 64.8373 0 44.971C0 25.1048 16.1048 9 35.971 9C55.8373 9 71.942 25.1048 71.942 44.971ZM10.6492 44.971C10.6492 58.9559 21.9862 70.2928 35.971 70.2928C49.9559 70.2928 61.2928 58.9559 61.2928 44.971C61.2928 30.9862 49.9559 19.6492 35.971 19.6492C21.9862 19.6492 10.6492 30.9862 10.6492 44.971Z" fill="#464646"/>
</svg>
