<svg width="358" height="83" viewBox="0 0 358 83" fill="none" xmlns="http://www.w3.org/2000/svg">
<path d="M288.741 51.5482L277.681 56.0124C277.681 56.0124 281.973 69.7581 294.257 77.1155C303.46 82.6248 318.792 85.7671 334.068 79.6764C348.982 73.731 355.716 61.1134 357.329 50.5723C360.606 29.137 350.804 17.9453 350.804 17.9453L343.848 36.5982L334.068 67.9309L311.168 74.693L288.748 51.5482H288.741Z" fill="#5E5E5E"/>
<path d="M316.414 80.7494C308.163 80.7494 298.063 78.3547 289.938 71.8487C281.02 64.7197 275.455 55.6667 275.031 43.3675C274.586 30.5285 278.933 19.4129 288.63 10.4914C294.223 5.34884 304.908 -0.589638 317.853 0.0471217C328.281 0.566219 338.84 2.62877 349.581 16.1876C362.032 31.9059 356.022 57.3693 347.793 67.1006C341.24 74.8456 330.027 80.7494 316.427 80.7494H316.414ZM317.415 16.9628C310.737 16.9628 304.546 19.8974 301.228 22.9428C295.51 28.196 292.512 35.2488 292.769 42.8C293.02 50.0189 296.268 56.8087 301.451 60.9545C314.487 71.378 329.776 63.9376 335.07 57.6392C339.884 51.9153 344.649 36.4808 334.493 25.0607C330.006 20.0151 324.636 17.3019 318.535 16.9974C318.16 16.9766 317.784 16.9697 317.415 16.9697V16.9628Z" fill="#464646"/>
<path d="M291.241 47.873L310.378 62.7399L326.774 61.764L338.091 49.7902L340.971 31.9609C340.971 31.9609 345.827 41.2701 342.87 51.5344C340.957 58.1719 335.253 66.3321 324.895 69.4813C314.67 72.589 304.931 70.1665 298.058 63.3213C291.763 57.0437 291.241 47.873 291.241 47.873Z" fill="#2F2F2F"/>
<path d="M316.075 67.6822C310.969 67.6822 305.578 66.0972 300.542 62.069C295.019 57.6532 291.562 50.462 291.297 42.8486C291.019 34.896 294.177 27.4764 300.18 21.9532C303.645 18.7694 310.552 15.198 318.573 15.5925C325.028 15.9178 330.92 18.8732 335.608 24.1472C346.335 36.2041 341.292 52.5107 336.207 58.5599C332.165 63.3702 324.499 67.696 316.075 67.696V67.6822ZM317.244 22.1816C311.978 22.1816 307.088 24.4933 304.472 26.9019C299.965 31.0477 297.593 36.6125 297.801 42.5648C297.996 48.261 300.556 53.6181 304.653 56.885C314.934 65.1075 327.004 59.2382 331.184 54.2687C334.982 49.7491 338.739 37.5745 330.725 28.563C327.184 24.5833 322.948 22.4446 318.134 22.2023C317.835 22.1885 317.543 22.1816 317.251 22.1816H317.244Z" fill="#676C70"/>
<path d="M294.565 51.1843L309.59 46.9208L308.47 43.3979L292.45 46.2425L294.565 51.1843ZM319.218 50.6168L319.03 66.1343L314.745 65.8852L315.983 50.6237L319.218 50.6168ZM323.252 48.402L335.113 57.981L337.04 55.4479L324.059 45.1905L323.252 48.402ZM322.911 37.5286L325.395 39.1966L338 31.2302L335.273 26.4061L322.911 37.5286ZM306.919 19.6094L300.965 22.8831L309.59 34.8085L313.813 32.0262L306.919 19.6094Z" fill="#858585"/>
<path d="M303.442 20.1555L312.144 33.479L316.798 31.5203L313.689 16.5703L303.442 20.1555ZM292.389 39.4314L293.446 48.7613L307.484 45.176L307.358 39.819L292.389 39.4314ZM311.824 50.0556L307.47 63.6767L308.04 65.317L316.36 66.549L316.979 51.1699L311.824 50.0556ZM324.617 46.4703L336.602 55.8002L340.394 46.7818L325.737 42.456L324.617 46.4703ZM324.617 36.9605L337.785 28.3711L331.267 21.6298L321.466 34.1296L324.617 36.9605Z" fill="#B0B0B0"/>
<path d="M316.06 68.3603C310.821 68.3603 305.291 66.7338 300.123 62.6017C294.453 58.0683 290.906 50.6971 290.635 42.883C290.349 34.7228 293.591 27.1093 299.747 21.4477C303.302 18.1809 310.39 14.5195 318.612 14.9209C325.235 15.2532 331.28 18.2847 336.093 23.6971C347.091 36.0655 341.923 52.7943 336.706 58.9958C332.56 63.9306 324.699 68.3672 316.053 68.3672L316.06 68.3603ZM317.388 17.8002C310.933 17.8002 304.95 20.6379 301.744 23.5795C296.22 28.6597 293.313 35.4772 293.57 42.7722C293.814 49.7489 296.951 56.3103 301.959 60.3177C314.557 70.3882 329.346 63.197 334.459 57.1132C339.105 51.5761 343.717 36.6607 333.895 25.6213C329.562 20.7417 324.365 18.1255 318.466 17.8279C318.105 17.8071 317.743 17.8002 317.388 17.8002Z" fill="#B0B0B0"/>
<path d="M311.838 32.8104C307.108 34.7069 305.229 41.9465 307.81 46.8676C310.384 51.7817 317.549 53.6158 321.938 50.5912C326.745 47.2898 327.872 40.8184 325.333 36.6033C322.891 32.5474 317.09 30.6994 311.838 32.8104Z" fill="#B0B0B0"/>
<path d="M316.329 38.6748C314.312 38.7648 313.178 39.9965 313.22 41.7681C313.262 43.415 314.632 44.6952 316.364 44.6952C318.096 44.6952 319.348 43.4496 319.39 41.7265C319.432 40.0035 318.138 38.5987 316.329 38.6748Z" fill="#464C4F"/>
<path d="M317.883 34.3438C316.818 34.3438 315.963 35.195 316.004 36.2124C316.046 37.2297 317.013 38.0395 317.862 38.0395C318.71 38.0395 319.761 37.2782 319.761 36.3023C319.761 35.3265 319.037 34.3507 317.883 34.3507V34.3438ZM322.216 39.5621C321.047 39.5621 320.401 40.6486 320.442 41.4514C320.484 42.2543 321.166 43.2578 322.3 43.2163C323.433 43.1747 324.073 42.2127 324.115 41.3269C324.157 40.441 323.266 39.5621 322.216 39.5621ZM319.594 45.5832C318.383 45.5416 317.688 46.469 317.66 47.431C317.618 48.6768 318.787 49.3204 319.635 49.3204C320.484 49.3204 321.451 48.7183 321.451 47.6317C321.451 46.5452 320.846 45.6247 319.594 45.5832ZM312.13 44.2959C311.003 44.3374 310.398 45.2579 310.433 46.2199C310.467 47.0642 311.121 48.0262 312.248 48.0262C313.375 48.0262 314.064 47.1404 314.064 46.1022C314.064 45.0641 313.215 44.2544 312.13 44.2959ZM311.288 36.9114C310.078 36.9529 309.466 37.8734 309.431 38.8008C309.389 39.9219 310.356 40.7663 311.365 40.7663C312.373 40.7663 313.222 39.9635 313.222 38.9184C313.222 37.8734 312.659 36.8629 311.288 36.9114Z" fill="#5E6367"/>
<path d="M307.566 46.6687C307.518 46.5857 303.184 38.5916 310.648 33.2691C318.383 27.7528 324.178 34.8541 324.241 34.9302C324.477 35.2209 324.679 35.7539 324.387 35.9892C324.094 36.2245 323.67 36.183 323.427 35.8923C323.218 35.6362 318.126 29.6008 311.441 34.3696C304.951 38.9999 308.679 46.2673 308.846 46.5788C309.02 46.911 308.923 47.4024 308.561 47.4924C307.984 47.6308 307.692 46.9041 307.566 46.6687Z" fill="#E0E0E0"/>
<path d="M311.781 33.5843C311.558 33.5843 311.336 33.4736 311.204 33.2729L303.67 21.479C303.622 21.4041 303.589 21.3205 303.573 21.2329C303.557 21.1452 303.559 21.0554 303.579 20.9685C303.598 20.8816 303.634 20.7994 303.686 20.7266C303.738 20.6539 303.803 20.592 303.879 20.5446C303.954 20.4964 304.038 20.4636 304.126 20.448C304.214 20.4323 304.304 20.4342 304.392 20.4535C304.479 20.4728 304.562 20.5092 304.635 20.5605C304.708 20.6117 304.77 20.6769 304.818 20.7522L312.351 32.5461C312.417 32.648 312.454 32.7656 312.459 32.8866C312.463 33.0077 312.435 33.1276 312.376 33.2339C312.318 33.3402 312.232 33.4288 312.127 33.4905C312.022 33.5522 311.903 33.5846 311.781 33.5843ZM321.881 34.2765C321.735 34.2765 321.589 34.228 321.464 34.1311C321.394 34.0767 321.335 34.009 321.29 33.9318C321.246 33.8546 321.218 33.7696 321.207 33.6815C321.196 33.5933 321.203 33.5039 321.226 33.4184C321.25 33.3328 321.291 33.2528 321.346 33.1829L330.305 21.7558C330.535 21.4582 330.966 21.4098 331.258 21.6382C331.558 21.8666 331.606 22.2957 331.377 22.5864L322.417 34.0135C322.285 34.1865 322.083 34.2765 321.881 34.2765ZM306.675 40.4918L293.945 40.3534C293.57 40.3534 293.271 40.0419 293.271 39.6682C293.271 39.2944 293.577 38.9968 293.952 38.9968H293.959L306.682 39.1352C307.058 39.1352 307.357 39.4467 307.357 39.8204C307.357 40.1942 307.051 40.4918 306.675 40.4918ZM307.691 63.7127C307.614 63.7127 307.545 63.6989 307.468 63.6781C307.298 63.6193 307.159 63.4962 307.079 63.3356C307 63.175 306.987 62.9897 307.044 62.8199L311.259 50.4308C311.704 50.7145 312.532 51.0537 312.539 51.0329L308.338 63.2559C308.24 63.5397 307.976 63.7127 307.691 63.7127Z" fill="#E0E0E0"/>
<path d="M330.337 62.3416C330.192 62.3417 330.051 62.2958 329.934 62.2106C329.817 62.1254 329.731 62.0053 329.688 61.8679C329.644 61.7305 329.646 61.5828 329.693 61.4465C329.739 61.3101 329.828 61.1921 329.947 61.1097C329.982 61.0889 333.189 58.9433 335.22 56.1263C337.182 53.3993 338.67 49.6134 338.684 49.5788C338.823 49.2327 339.22 49.0666 339.568 49.1981C339.915 49.3365 340.089 49.731 339.95 50.0771C339.888 50.2294 338.462 53.9946 336.284 56.9638C334.114 59.9261 330.865 62.1202 330.726 62.2171C330.612 62.2965 330.476 62.3399 330.337 62.3416ZM292.411 49.115C292.133 49.115 291.876 48.9489 291.771 48.679C291.716 48.5406 286.547 34.3865 298.192 22.7241C310.094 10.8057 324 16.0589 324.139 16.1143C324.307 16.1804 324.441 16.3101 324.513 16.475C324.585 16.6398 324.588 16.8263 324.521 16.9933C324.455 17.1603 324.325 17.2943 324.159 17.3657C323.993 17.4371 323.806 17.4401 323.638 17.374C323.603 17.3601 320.292 16.1005 315.638 16.2458C309.419 16.4465 303.875 18.952 299.152 23.6724C288.119 34.7187 292.989 48.0561 293.037 48.1945C293.101 48.3625 293.094 48.5486 293.02 48.712C292.946 48.8755 292.809 49.0029 292.641 49.0666C292.564 49.0943 292.481 49.1081 292.411 49.115Z" fill="white"/>
<path d="M300.75 14.0567C286.407 22.0647 281.948 38.7104 286.935 53.1621C288.173 56.7473 288.452 59.3705 286.045 60.6094C283.638 61.8483 281.12 58.5468 280.431 56.8857C274.018 41.3682 277.746 17.9465 298.879 6.78245C319.198 -3.94556 342.286 7.12159 348.553 21.5387C350.286 25.5115 348.769 27.3041 347.726 27.8024C344.415 29.3736 343.1 25.4423 342.189 24.0719C331.546 8.04213 314.245 6.53328 300.75 14.0567ZM347.948 30.8063C345.305 31.5745 344.505 34.7445 345.528 37.5199C346.55 40.3023 348.741 40.6691 350.557 40.0185C352.372 39.3679 353.207 37.6099 352.79 34.6891C352.372 31.7683 350.181 30.1488 347.948 30.8063Z" fill="#707070"/>
<path d="M11.7542 51.096L2.29297 54.9147C2.29297 54.9147 5.96441 66.673 16.4729 72.9666C24.3454 77.6793 37.4603 80.3673 50.5275 75.1572C63.2853 70.0714 69.0454 59.2782 70.4259 50.2612C73.2285 31.9251 64.8443 22.3516 64.8443 22.3516L58.8939 38.3075L50.5275 65.11L30.9385 70.8944L11.7602 51.096H11.7542Z" fill="#5E5E5E"/>
<path d="M35.4258 76.0742C28.3686 76.0742 19.7285 74.0257 12.7783 68.4604C5.14984 62.3622 0.389462 54.6181 0.0264835 44.0972C-0.354347 33.1145 3.3647 23.6061 11.6597 15.9745C16.4438 11.5755 25.5838 6.49562 36.6576 7.04031C45.5774 7.48435 54.6102 9.24868 63.7977 20.8471C74.449 34.2927 69.3078 56.0745 62.2684 64.3988C56.6631 71.024 47.0709 76.0742 35.4377 76.0742H35.4258ZM36.2827 21.5102C30.5703 21.5102 25.2743 24.0205 22.436 26.6256C17.5447 31.1193 14.98 37.1524 15.2002 43.6117C15.4144 49.7869 18.1933 55.5949 22.6264 59.1414C33.7776 68.0578 46.8567 61.6931 51.385 56.3054C55.5027 51.4091 59.5788 38.2062 50.8911 28.4373C47.0531 24.1212 42.4593 21.8003 37.2407 21.5398C36.9194 21.522 36.5981 21.5161 36.2827 21.5161V21.5102Z" fill="#464646"/>
<path d="M13.8926 47.9473L30.2623 60.6647L44.2876 59.8299L53.969 49.5873L56.4325 34.3359C56.4325 34.3359 60.5859 42.2991 58.057 51.0793C56.4206 56.7572 51.5412 63.7375 42.681 66.4314C33.9338 69.0897 25.6031 67.0175 19.724 61.1621C14.3389 55.7921 13.8926 47.9473 13.8926 47.9473Z" fill="#2F2F2F"/>
<path d="M35.1368 64.8964C30.7692 64.8964 26.1576 63.5406 21.8494 60.0948C17.1247 56.3175 14.1674 50.166 13.9412 43.6534C13.7032 36.8506 16.4047 30.5038 21.54 25.7792C24.5033 23.0557 30.4122 20.0007 37.273 20.3382C42.7951 20.6164 47.8351 23.1445 51.8457 27.656C61.0214 37.9696 56.7073 51.9185 52.3575 57.0931C48.9003 61.2079 42.3428 64.9083 35.1368 64.9083V64.8964ZM36.1365 25.9745C31.632 25.9745 27.4488 27.952 25.2114 30.0124C21.3555 33.5588 19.3264 38.3189 19.5049 43.4106C19.6716 48.2833 21.8613 52.8658 25.3661 55.6603C34.1609 62.694 44.485 57.6733 48.0612 53.4223C51.3102 49.5562 54.5235 39.1419 47.6685 31.4333C44.6397 28.029 41.0159 26.1995 36.8982 25.9923C36.6423 25.9805 36.3924 25.9745 36.1425 25.9745H36.1365Z" fill="#676C70"/>
<path d="M16.7357 50.7831L29.5887 47.136L28.6307 44.1225L14.9268 46.5558L16.7357 50.7831ZM37.8242 50.2976L37.6635 63.5716L33.998 63.3584L35.0572 50.3035L37.8242 50.2976ZM41.2754 48.403L51.421 56.5971L53.0693 54.4302L41.9657 45.6559L41.2754 48.403ZM40.9839 39.1018L43.1082 40.5287L53.8904 33.7141L51.5579 29.5874L40.9839 39.1018ZM27.3037 23.7734L22.2101 26.5739L29.5887 36.775L33.2007 34.395L27.3037 23.7734Z" fill="#858585"/>
<path d="M24.3303 24.2387L31.7743 35.6358L35.7552 33.9603L33.0953 21.1719L24.3303 24.2387ZM14.875 40.7275L15.7795 48.7085L27.7875 45.6416L27.6804 41.0591L14.875 40.7275ZM31.5006 49.8156L27.7756 61.4673L28.2636 62.8705L35.3803 63.9244L35.9099 50.7688L31.5006 49.8156ZM42.4435 46.7488L52.6962 54.7297L55.9392 47.0152L43.4016 43.3148L42.4435 46.7488ZM42.4435 38.6139L53.7078 31.2665L48.1322 25.4998L39.748 36.1924L42.4435 38.6139Z" fill="#B0B0B0"/>
<path d="M35.1232 65.4731C30.6425 65.4731 25.9119 64.0817 21.4906 60.5471C16.641 56.6692 13.6063 50.3638 13.3742 43.6794C13.1302 36.6991 15.9032 30.1864 21.1693 25.3434C24.21 22.5489 30.2735 19.4169 37.307 19.7603C42.9719 20.0445 48.1428 22.6377 52.2605 27.2676C61.6682 37.8477 57.247 52.1577 52.7842 57.4625C49.2377 61.6839 42.5137 65.479 35.1172 65.479L35.1232 65.4731ZM36.2597 22.2233C30.7377 22.2233 25.6203 24.6507 22.8771 27.1669C18.1524 31.5126 15.6651 37.3444 15.8853 43.5847C16.0936 49.5526 18.7772 55.1653 23.0616 58.5934C33.8379 67.2078 46.4886 61.0563 50.8622 55.8521C54.8371 51.1157 58.7823 38.3568 50.3802 28.9135C46.673 24.7395 42.228 22.5015 37.182 22.2469C36.8726 22.2292 36.5632 22.2233 36.2597 22.2233Z" fill="#B0B0B0"/>
<path d="M31.5111 35.0659C27.4648 36.6881 25.8582 42.8811 28.0658 47.0906C30.2675 51.2942 36.3965 52.8631 40.1512 50.2759C44.263 47.4517 45.227 41.916 43.0551 38.3104C40.9664 34.8409 36.0038 33.2601 31.5111 35.0659Z" fill="#B0B0B0"/>
<path d="M35.3541 40.0807C33.6285 40.1576 32.6586 41.2113 32.6943 42.7266C32.73 44.1355 33.9022 45.2306 35.3838 45.2306C36.8654 45.2306 37.9365 44.1651 37.9722 42.6911C38.0079 41.2172 36.9011 40.0155 35.3541 40.0807Z" fill="#464C4F"/>
<path d="M36.6828 36.375C35.7725 36.375 35.0406 37.1032 35.0763 37.9734C35.112 38.8437 35.9391 39.5364 36.665 39.5364C37.3909 39.5364 38.2894 38.8852 38.2894 38.0504C38.2894 37.2157 37.6706 36.3809 36.6828 36.3809V36.375ZM40.3899 40.8388C39.3902 40.8388 38.8368 41.7683 38.8725 42.455C38.9082 43.1418 39.4914 44.0002 40.4613 43.9647C41.4312 43.9291 41.9786 43.1062 42.0143 42.3485C42.05 41.5907 41.2884 40.8388 40.3899 40.8388ZM38.1466 45.9894C37.1113 45.9538 36.5162 46.7471 36.4924 47.5701C36.4567 48.6357 37.4564 49.1863 38.1823 49.1863C38.9082 49.1863 39.7353 48.6712 39.7353 47.7417C39.7353 46.8123 39.2177 46.0249 38.1466 45.9894ZM31.762 44.8882C30.798 44.9237 30.2804 45.7111 30.3101 46.534C30.3399 47.2563 30.8992 48.0792 31.8631 48.0792C32.8271 48.0792 33.4161 47.3214 33.4161 46.4334C33.4161 45.5453 32.6902 44.8527 31.762 44.8882ZM31.042 38.5714C30.0066 38.6069 29.483 39.3943 29.4533 40.1876C29.4176 41.1467 30.2446 41.8689 31.1074 41.8689C31.9702 41.8689 32.6962 41.1822 32.6962 40.2882C32.6962 39.3943 32.2142 38.5299 31.042 38.5714Z" fill="#5E6367"/>
<path d="M27.8578 46.9203C27.8161 46.8493 24.109 40.011 30.4938 35.4581C37.1108 30.7394 42.0675 36.8139 42.121 36.879C42.3234 37.1277 42.4959 37.5836 42.246 37.7849C41.9961 37.9862 41.6331 37.9506 41.4248 37.702C41.2463 37.4829 36.8906 32.3202 31.1722 36.3994C25.6204 40.3603 28.8098 46.5769 28.9527 46.8433C29.1014 47.1275 29.0181 47.5479 28.7087 47.6249C28.2148 47.7433 27.9649 47.1216 27.8578 46.9203Z" fill="#E0E0E0"/>
<path d="M31.4631 35.7304C31.2727 35.7304 31.0823 35.6356 30.9692 35.4639L24.5249 25.3753C24.4835 25.3112 24.4552 25.2397 24.4418 25.1647C24.4283 25.0898 24.43 25.0129 24.4466 24.9386C24.4632 24.8643 24.4944 24.794 24.5385 24.7317C24.5826 24.6695 24.6386 24.6166 24.7034 24.576C24.7677 24.5348 24.8396 24.5067 24.915 24.4933C24.9903 24.48 25.0676 24.4816 25.1423 24.4981C25.217 24.5146 25.2876 24.5457 25.3502 24.5896C25.4127 24.6334 25.4659 24.6892 25.5067 24.7536L31.951 34.8423C32.0075 34.9294 32.0392 35.03 32.043 35.1335C32.0467 35.2371 32.0223 35.3397 31.9724 35.4306C31.9224 35.5215 31.8488 35.5974 31.7591 35.6501C31.6695 35.7029 31.5672 35.7306 31.4631 35.7304ZM40.1032 36.3224C39.9782 36.3224 39.8533 36.281 39.7462 36.1981C39.6859 36.1515 39.6354 36.0936 39.5976 36.0276C39.5599 35.9616 39.5356 35.8888 39.5262 35.8134C39.5168 35.7381 39.5225 35.6616 39.5429 35.5884C39.5632 35.5152 39.598 35.4468 39.645 35.387L47.3092 25.6121C47.5056 25.3575 47.8745 25.3161 48.1244 25.5115C48.3803 25.7068 48.422 26.0739 48.2256 26.3226L40.5614 36.0974C40.4483 36.2455 40.2758 36.3224 40.1032 36.3224ZM27.0955 41.6391L16.2061 41.5207C15.8848 41.5207 15.6289 41.2543 15.6289 40.9346C15.6289 40.6148 15.8907 40.3603 16.2121 40.3603H16.218L27.1014 40.4787C27.4227 40.4787 27.6786 40.7451 27.6786 41.0648C27.6786 41.3845 27.4168 41.6391 27.0955 41.6391ZM27.9642 61.5026C27.8988 61.5026 27.8393 61.4908 27.7738 61.473C27.6285 61.4227 27.5089 61.3174 27.441 61.18C27.3731 61.0426 27.3622 60.8842 27.4108 60.7389L31.0168 50.141C31.3977 50.3838 32.1058 50.6739 32.1117 50.6561L28.5176 61.1119C28.4343 61.3546 28.2082 61.5026 27.9642 61.5026Z" fill="#E0E0E0"/>
<path d="M47.3358 60.328C47.2119 60.3281 47.0913 60.2888 46.9914 60.2159C46.8916 60.143 46.8177 60.0403 46.7805 59.9228C46.7433 59.8052 46.7448 59.6789 46.7848 59.5623C46.8247 59.4456 46.901 59.3447 47.0026 59.2742C47.0323 59.2564 49.7755 57.421 51.513 55.0114C53.1911 52.6787 54.4645 49.4401 54.4764 49.4105C54.5954 49.1145 54.9345 48.9724 55.2321 49.0849C55.5296 49.2033 55.6784 49.5408 55.5593 49.8368C55.5058 49.967 54.2859 53.1878 52.4234 55.7278C50.5669 58.2618 47.788 60.1386 47.669 60.2215C47.5712 60.2894 47.4551 60.3266 47.3358 60.328ZM14.8938 49.0138C14.6558 49.0138 14.4356 48.8717 14.3464 48.6408C14.2988 48.5224 9.87757 36.4148 19.8387 26.4387C30.0199 16.2434 41.9149 20.7371 42.0339 20.7845C42.1775 20.841 42.2927 20.952 42.3541 21.093C42.4154 21.234 42.418 21.3935 42.3612 21.5364C42.3044 21.6793 42.1928 21.7939 42.0511 21.855C41.9094 21.916 41.7491 21.9186 41.6055 21.8621C41.5757 21.8502 38.7433 20.7727 34.7624 20.897C29.4427 21.0687 24.7002 23.2119 20.6598 27.2498C11.2224 36.699 15.3877 48.108 15.4294 48.2264C15.4835 48.3701 15.4781 48.5293 15.4146 48.6691C15.351 48.8089 15.2344 48.9179 15.0902 48.9724C15.0247 48.9961 14.9533 49.0079 14.8938 49.0138Z" fill="white"/>
<path d="M22.0273 19.0253C9.75738 25.8754 5.94312 40.1144 10.2096 52.4765C11.2688 55.5434 11.5068 57.7873 9.44795 58.8471C7.38909 59.9069 5.23502 57.0828 4.64592 55.6618C-0.840414 42.3879 2.34904 22.3527 20.4266 12.8028C37.8079 3.62587 57.5575 13.0929 62.9189 25.4254C64.4006 28.8238 63.1034 30.3573 62.2108 30.7836C59.3784 32.1275 58.2537 28.7646 57.4742 27.5924C48.37 13.8803 33.5712 12.5896 22.0273 19.0253ZM62.4012 33.3531C60.14 34.0103 59.4557 36.7219 60.3304 39.096C61.2052 41.4761 63.0796 41.7899 64.6326 41.2334C66.1857 40.6768 66.8998 39.173 66.5427 36.6745C66.1857 34.176 64.3113 32.7906 62.4012 33.3531Z" fill="#707070"/>
</svg>
