<svg width="361" height="87" viewBox="0 0 361 87" fill="none" xmlns="http://www.w3.org/2000/svg">
<path d="M317.266 1C340.609 1 359.531 19.9223 359.531 43.2656C359.531 66.6089 340.609 85.5312 317.266 85.5312C293.922 85.5312 275 66.6089 275 43.2656C275 19.9223 293.922 1 317.266 1ZM320.473 54.8145C318.375 55.3973 316.157 55.3973 314.059 54.8145L313.312 54.6074L312.926 55.2783L306.327 66.7002L305.76 67.6826L306.807 68.1221C310.118 69.5127 313.674 70.2264 317.266 70.2236C320.971 70.2236 324.508 69.4748 327.726 68.1221L328.771 67.6826L328.204 66.7002L321.605 55.2783L321.219 54.6074L320.473 54.8145ZM290.513 46.6357C290.962 50.1985 292.12 53.6356 293.916 56.7451C295.712 59.8542 298.112 62.5782 300.974 64.748L301.877 65.4326L302.443 64.4512L309.037 53.0283L309.425 52.3574L308.871 51.8145C307.316 50.2893 306.206 48.3686 305.661 46.2598L305.467 45.5107H290.371L290.513 46.6357ZM328.866 46.2598C328.321 48.3669 327.212 50.286 325.659 51.8105L325.106 52.3535L325.494 53.0244L332.088 64.4463L332.654 65.4287L333.558 64.7432C336.419 62.5737 338.819 59.8546 340.615 56.7451C342.411 53.6356 343.569 50.1985 344.019 46.6357L344.16 45.5107H329.06L328.866 46.2598ZM300.974 21.7881C298.112 23.9576 295.712 26.6766 293.916 29.7861C292.12 32.8957 290.962 36.3327 290.513 39.8955L290.371 41.0205H305.472L305.665 40.2705C306.216 38.1359 307.342 36.2269 308.873 34.7197L309.424 34.1768L309.037 33.5068L302.443 22.085L301.877 21.1025L300.974 21.7881ZM332.088 22.0801L325.494 33.5029L325.106 34.1738L325.659 34.7158C327.212 36.2404 328.321 38.1595 328.866 40.2666L329.06 41.0166H344.16L344.019 39.8916C343.569 36.3289 342.411 32.8917 340.615 29.7822C338.819 26.6727 336.419 23.9527 333.558 21.7832L332.654 21.0986L332.088 22.0801ZM317.265 16.3066C313.56 16.3068 310.023 17.0565 306.806 18.4092L305.76 18.8486L306.327 19.8311L312.926 31.2529L313.312 31.9238L314.059 31.7168C316.157 31.134 318.375 31.134 320.473 31.7168L321.219 31.9238L321.605 31.2529L328.204 19.8271L328.771 18.8438L327.725 18.4043C324.413 17.0151 320.856 16.3023 317.265 16.3066Z" fill="#2B3B47" stroke="black" stroke-width="2"/>
<circle cx="317.645" cy="43.6516" r="8.33911" fill="#FF473E"/>
<path d="M36 9C55.3305 9 71 24.6695 71 44C71 63.3305 55.3305 79 36 79C16.6695 79 1 63.3305 1 44C1 24.6695 16.6695 9 36 9ZM38.623 53.4473C36.9068 53.924 35.0932 53.924 33.377 53.4473L32.6309 53.2402L32.2432 53.9111L26.7529 63.415L26.1855 64.3975L27.2324 64.8369C30.0084 66.0026 32.9892 66.601 36 66.5986C39.106 66.5986 42.0709 65.971 44.7686 64.8369L45.8145 64.3975L45.2471 63.415L39.7568 53.9111L39.3691 53.2402L38.623 53.4473ZM13.5732 46.8252C13.9502 49.8118 14.92 52.6931 16.4258 55.2998C17.9313 57.906 19.9425 60.1898 22.3418 62.0088L23.2461 62.6934L23.8125 61.7119L29.2988 52.208L29.6865 51.5361L29.1328 50.9932C27.8607 49.7455 26.9529 48.1743 26.5068 46.4492L26.3125 45.7002H13.4316L13.5732 46.8252ZM45.4902 46.4492C45.0446 48.1728 44.1376 49.7431 42.8672 50.9902L42.3135 51.5332L42.7012 52.2041L48.1875 61.708L48.7539 62.6895L49.6582 62.0049C52.057 60.1863 54.0685 57.9064 55.5742 55.2998C57.08 52.6931 58.0498 49.8118 58.4268 46.8252L58.5684 45.7002H45.6836L45.4902 46.4492ZM22.3418 25.9951C19.943 27.8137 17.9315 30.0936 16.4258 32.7002C14.92 35.3069 13.9502 38.1882 13.5732 41.1748L13.4316 42.2998H26.3164L26.5107 41.5498C26.9611 39.8039 27.8819 38.242 29.1348 37.0088L29.6855 36.4658L29.2988 35.7959L23.8125 26.292L23.2461 25.3105L22.3418 25.9951ZM48.1875 26.2881L42.7012 35.792L42.3135 36.4639L42.8672 37.0059C44.1377 38.253 45.0446 39.8232 45.4902 41.5469L45.6836 42.2969H58.5684L58.4268 41.1709C58.0498 38.1843 57.08 35.3029 55.5742 32.6963C54.0684 30.0896 52.0571 27.8098 49.6582 25.9912L48.7539 25.3066L48.1875 26.2881ZM35.999 21.4004C32.8934 21.4005 29.9288 22.0291 27.2314 23.1631L26.1855 23.6025L26.7529 24.585L32.2432 34.0889L32.6309 34.7598L33.377 34.5527C35.0932 34.076 36.9068 34.076 38.623 34.5527L39.3691 34.7598L39.7568 34.0889L45.2471 24.5811L45.8145 23.5977L44.7676 23.1592C41.9911 21.9946 39.0099 21.3968 35.999 21.4004Z" fill="#2B3B47" stroke="black" stroke-width="2"/>
<circle cx="36.3157" cy="44.3215" r="6.93871" fill="#FF473E"/>
</svg>
