<svg width="50" height="50" viewBox="0 0 50 50" fill="none" xmlns="http://www.w3.org/2000/svg">
<path d="M8.2781 31.0517L1.61523 33.7406C1.61523 33.7406 4.20076 42.0197 11.6012 46.451C17.1452 49.7694 26.381 51.662 35.5833 47.9935C44.5677 44.4125 48.6241 36.8129 49.5963 30.4639C51.57 17.5533 45.6656 10.8125 45.6656 10.8125L41.4751 22.0472L35.5833 40.9191L21.7882 44.992L8.28229 31.0517H8.2781Z" fill="#5E5E5E"/>
<path d="M24.9478 48.6359C19.9779 48.6359 13.8933 47.1935 8.99885 43.2749C3.62666 38.9811 0.27427 33.5284 0.0186504 26.1205C-0.24954 18.3875 2.36951 11.6925 8.21104 6.31901C11.5802 3.22164 18.0168 -0.355142 25.8153 0.0283817C32.0968 0.341037 38.4579 1.58332 44.9281 9.74988C52.429 19.2171 48.8084 34.5539 43.8511 40.4151C39.9037 45.0799 33.1486 48.6359 24.9562 48.6359H24.9478ZM25.5513 10.2168C21.5284 10.2168 17.7989 11.9843 15.8 13.8186C12.3554 16.9826 10.5493 21.2306 10.7044 25.7787C10.8552 30.1267 12.8122 34.2162 15.9341 36.7133C23.7871 42.9914 32.9977 38.51 36.1867 34.7164C39.0865 31.2689 41.957 21.9726 35.8389 15.0942C33.136 12.0552 29.901 10.421 26.2259 10.2376C25.9996 10.2251 25.7734 10.2209 25.5513 10.2209V10.2168Z" fill="#464646"/>
<path d="M9.7832 28.8339L21.3112 37.7884L31.1882 37.2006L38.0061 29.9887L39.741 19.25C39.741 19.25 42.6659 24.857 40.885 31.0392C39.7326 35.037 36.2964 39.952 30.0568 41.8487C23.8967 43.7205 18.0301 42.2614 13.8899 38.1386C10.0975 34.3575 9.7832 28.8339 9.7832 28.8339Z" fill="#2F2F2F"/>
<path d="M24.7433 40.767C21.6675 40.767 18.4199 39.8123 15.386 37.3861C12.0588 34.7265 9.97608 30.3952 9.81684 25.8096C9.64922 21.0197 11.5517 16.5508 15.1681 13.2241C17.255 11.3065 21.4161 9.15545 26.2477 9.39306C30.1365 9.589 33.6858 11.369 36.5102 14.5456C42.9719 21.8076 39.9338 31.6291 36.8706 35.2726C34.4359 38.1699 29.818 40.7753 24.7433 40.7753V40.767ZM25.4473 13.3617C22.2751 13.3617 19.3292 14.7541 17.7536 16.2048C15.0382 18.7019 13.6092 22.0535 13.7349 25.6386C13.8523 29.0695 15.3944 32.2961 17.8626 34.2638C24.0561 39.2162 31.3266 35.6811 33.8451 32.688C36.1331 29.9658 38.3959 22.633 33.5685 17.2053C31.4355 14.8083 28.8835 13.5201 25.9837 13.3742C25.8035 13.3659 25.6275 13.3617 25.4515 13.3617H25.4473Z" fill="#676C70"/>
<path d="M11.7856 30.8303L20.8371 28.2623L20.1624 26.1405L10.5117 27.8538L11.7856 30.8303ZM26.6367 30.4884L26.5235 39.8348L23.9422 39.6847L24.6881 30.4926L26.6367 30.4884ZM29.0672 29.1545L36.2119 34.924L37.3727 33.3982L29.5533 27.2202L29.0672 29.1545ZM28.8618 22.6054L30.3578 23.61L37.951 18.8118L36.3083 15.9062L28.8618 22.6054ZM19.2279 11.8125L15.6409 13.7843L20.8371 20.967L23.3807 19.2912L19.2279 11.8125Z" fill="#858585"/>
<path d="M17.1333 12.1438L22.3756 20.1686L25.179 18.9888L23.3059 9.98438L17.1333 12.1438ZM10.4746 23.7537L11.1116 29.3732L19.568 27.2138L19.4925 23.9872L10.4746 23.7537ZM22.1828 30.1527L19.5596 38.3568L19.9032 39.3448L24.915 40.0868L25.288 30.8239L22.1828 30.1527ZM29.8891 27.9933L37.1093 33.6128L39.3931 28.1809L30.5638 25.5755L29.8891 27.9933ZM29.8891 22.2655L37.8217 17.0921L33.8952 13.0317L27.9908 20.5605L29.8891 22.2655Z" fill="#B0B0B0"/>
<path d="M24.7349 41.1738C21.5794 41.1738 18.248 40.1942 15.1345 37.7054C11.7192 34.9749 9.58208 30.5352 9.41865 25.8287C9.24684 20.9138 11.1996 16.3282 14.9082 12.9181C17.0495 10.9505 21.3196 8.74522 26.2728 8.98701C30.2621 9.1871 33.9036 11.013 36.8035 14.273C43.4286 21.7225 40.3151 31.7983 37.1722 35.5335C34.6747 38.5058 29.9394 41.178 24.7307 41.178L24.7349 41.1738ZM25.5352 10.7212C21.6465 10.7212 18.0427 12.4304 16.1108 14.2021C12.7836 17.2619 11.032 21.3682 11.187 25.762C11.3337 29.9641 13.2236 33.9161 16.2408 36.3298C23.8297 42.3953 32.7387 38.0639 35.8187 34.3996C38.6179 31.0646 41.3962 22.081 35.4793 15.4319C32.8686 12.4929 29.7383 10.9171 26.1848 10.7379C25.9669 10.7254 25.749 10.7212 25.5352 10.7212Z" fill="#B0B0B0"/>
<path d="M22.1911 19.7648C19.3416 20.9071 18.2102 25.2676 19.7648 28.2316C21.3153 31.1914 25.6315 32.2961 28.2757 30.4743C31.1713 28.4858 31.8502 24.5881 30.3207 22.0493C28.8498 19.6064 25.3549 18.4934 22.1911 19.7648Z" fill="#B0B0B0"/>
<path d="M24.8973 23.2987C23.682 23.3528 22.999 24.0949 23.0241 25.1621C23.0493 26.1542 23.8748 26.9255 24.9182 26.9255C25.9616 26.9255 26.7159 26.1751 26.7411 25.1371C26.7662 24.0991 25.9868 23.2528 24.8973 23.2987Z" fill="#464C4F"/>
<path d="M25.8325 20.6875C25.1913 20.6875 24.6759 21.2003 24.701 21.8131C24.7262 22.4259 25.3086 22.9136 25.8199 22.9136C26.3311 22.9136 26.9639 22.455 26.9639 21.8673C26.9639 21.2795 26.5281 20.6917 25.8325 20.6917V20.6875ZM28.4431 23.8307C27.7391 23.8307 27.3494 24.4852 27.3746 24.9688C27.3997 25.4524 27.8104 26.0568 28.4934 26.0318C29.1765 26.0068 29.562 25.4274 29.5871 24.8938C29.6123 24.3602 29.0759 23.8307 28.4431 23.8307ZM26.8633 27.4575C26.1342 27.4325 25.7151 27.9911 25.6984 28.5706C25.6732 29.321 26.3772 29.7086 26.8885 29.7086C27.3997 29.7086 27.9822 29.346 27.9822 28.6915C27.9822 28.037 27.6176 27.4825 26.8633 27.4575ZM22.3669 26.6821C21.6881 26.7072 21.3235 27.2616 21.3444 27.8411C21.3654 28.3496 21.7593 28.9291 22.4382 28.9291C23.117 28.9291 23.5319 28.3955 23.5319 27.7702C23.5319 27.1449 23.0206 26.6571 22.3669 26.6821ZM21.8599 22.2341C21.1307 22.2591 20.762 22.8136 20.741 23.3722C20.7159 24.0475 21.2984 24.5561 21.906 24.5561C22.5136 24.5561 23.0248 24.0725 23.0248 23.443C23.0248 22.8136 22.6854 22.2049 21.8599 22.2341Z" fill="#5E6367"/>
<path d="M19.618 28.1151C19.5887 28.0651 16.978 23.2502 21.4744 20.0444C26.1342 16.7219 29.6249 20.9991 29.6626 21.0449C29.8051 21.22 29.9266 21.541 29.7506 21.6827C29.5746 21.8245 29.319 21.7995 29.1723 21.6244C29.0466 21.4701 25.9792 17.835 21.9521 20.7073C18.0424 23.4961 20.2885 27.8733 20.3891 28.0609C20.4938 28.261 20.4352 28.557 20.2172 28.6112C19.8694 28.6946 19.6934 28.2568 19.618 28.1151Z" fill="#E0E0E0"/>
<path d="M22.1567 20.2309C22.0226 20.2309 21.8885 20.1642 21.8089 20.0433L17.2706 12.9398C17.2415 12.8947 17.2216 12.8443 17.2121 12.7915C17.2027 12.7388 17.2038 12.6847 17.2155 12.6323C17.2272 12.58 17.2492 12.5305 17.2802 12.4867C17.3113 12.4428 17.3507 12.4056 17.3963 12.377C17.4417 12.348 17.4923 12.3282 17.5454 12.3188C17.5984 12.3094 17.6528 12.3105 17.7054 12.3222C17.758 12.3338 17.8078 12.3557 17.8518 12.3866C17.8959 12.4174 17.9334 12.4567 17.9621 12.5021L22.5004 19.6056C22.5401 19.6669 22.5624 19.7378 22.5651 19.8107C22.5677 19.8836 22.5505 19.9558 22.5154 20.0199C22.4802 20.0839 22.4283 20.1373 22.3652 20.1744C22.3021 20.2115 22.2301 20.2311 22.1567 20.2309ZM28.2413 20.6478C28.1533 20.6478 28.0653 20.6186 27.9899 20.5602C27.9474 20.5275 27.9119 20.4867 27.8853 20.4402C27.8587 20.3937 27.8416 20.3425 27.835 20.2894C27.8284 20.2363 27.8324 20.1825 27.8467 20.131C27.8611 20.0794 27.8855 20.0312 27.9186 19.9891L33.316 13.1065C33.4543 12.9273 33.7141 12.8981 33.8901 13.0357C34.0703 13.1732 34.0996 13.4317 33.9613 13.6068L28.564 20.4894C28.4844 20.5936 28.3628 20.6478 28.2413 20.6478ZM19.0809 24.3913L11.4123 24.3079C11.1861 24.3079 11.0059 24.1203 11.0059 23.8952C11.0059 23.6701 11.1902 23.4909 11.4165 23.4909H11.4207L19.0851 23.5742C19.3114 23.5742 19.4916 23.7618 19.4916 23.9869C19.4916 24.2121 19.3072 24.3913 19.0809 24.3913ZM19.6927 38.3774C19.6466 38.3774 19.6047 38.3691 19.5586 38.3566C19.4563 38.3211 19.3721 38.247 19.3243 38.1503C19.2764 38.0535 19.2688 37.942 19.303 37.8397L21.8424 30.3776C22.1106 30.5485 22.6093 30.7528 22.6135 30.7403L20.0824 38.1023C20.0238 38.2732 19.8645 38.3774 19.6927 38.3774Z" fill="#E0E0E0"/>
<path d="M33.3358 37.5503C33.2486 37.5503 33.1637 37.5227 33.0933 37.4713C33.023 37.42 32.9709 37.3477 32.9448 37.2649C32.9186 37.1822 32.9196 37.0932 32.9478 37.0111C32.9759 36.929 33.0296 36.8579 33.1012 36.8082C33.1221 36.7957 35.0539 35.5034 36.2776 33.8068C37.4593 32.1643 38.356 29.884 38.3644 29.8631C38.4482 29.6547 38.6871 29.5546 38.8966 29.6339C39.1061 29.7172 39.2109 29.9548 39.1271 30.1633C39.0894 30.255 38.2303 32.5228 36.9187 34.3112C35.6113 36.0954 33.6543 37.4169 33.5705 37.4752C33.5016 37.5231 33.4198 37.5492 33.3358 37.5503ZM10.4893 29.5838C10.3217 29.5838 10.1667 29.4838 10.1038 29.3212C10.0703 29.2378 6.95675 20.7128 13.9716 13.6884C21.1415 6.50986 29.5183 9.67393 29.6021 9.70728C29.7032 9.74709 29.7843 9.82522 29.8276 9.92451C29.8708 10.0238 29.8726 10.1361 29.8326 10.2367C29.7926 10.3373 29.714 10.418 29.6142 10.461C29.5144 10.504 29.4015 10.5058 29.3004 10.466C29.2794 10.4577 27.2848 9.69895 24.4813 9.78649C20.7351 9.90738 17.3952 11.4165 14.5499 14.2595C7.9038 20.9129 10.8371 28.946 10.8665 29.0294C10.9046 29.1306 10.9008 29.2426 10.8561 29.3411C10.8113 29.4395 10.7292 29.5163 10.6276 29.5546C10.5815 29.5713 10.5312 29.5797 10.4893 29.5838Z" fill="white"/>
<path d="M15.5124 8.46539C6.87162 13.2886 4.18552 23.3144 7.1901 32.0188C7.93601 34.1782 8.10363 35.7581 6.65372 36.5043C5.20381 37.2505 3.68686 35.262 3.272 34.2615C-0.591625 24.9152 1.65447 10.8082 14.3852 4.08405C26.6256 -2.3775 40.5338 4.28832 44.3094 12.9718C45.3528 15.3647 44.4393 16.4444 43.8107 16.7445C41.8161 17.6908 41.0241 15.323 40.4751 14.4976C34.0637 4.84276 23.6419 3.93397 15.5124 8.46539ZM43.9448 18.5537C42.3524 19.0165 41.8705 20.9258 42.4865 22.5974C43.1025 24.2732 44.4225 24.4942 45.5163 24.1023C46.61 23.7105 47.1128 22.6516 46.8614 20.8924C46.61 19.1332 45.29 18.1577 43.9448 18.5537Z" fill="#707070"/>
</svg>
