<svg width="50" height="50" viewBox="0 0 50 50" fill="none" xmlns="http://www.w3.org/2000/svg">
<path d="M25 0C18.3696 0 12.0107 2.63392 7.32233 7.32233C2.63392 12.0107 0 18.3696 0 25C0 31.6304 2.63392 37.9893 7.32233 42.6777C12.0107 47.3661 18.3696 50 25 50C28.283 50 31.5339 49.3534 34.5671 48.097C37.6002 46.8406 40.3562 44.9991 42.6777 42.6777C44.9991 40.3562 46.8406 37.6002 48.097 34.5671C49.3534 31.5339 50 28.283 50 25C50 21.717 49.3534 18.4661 48.097 15.4329C46.8406 12.3998 44.9991 9.64379 42.6777 7.32233C40.3562 5.00087 37.6002 3.15938 34.5671 1.90301C31.5339 0.646644 28.283 0 25 0ZM25 8.7234C33.978 8.7234 41.2766 16.022 41.2766 25C41.2766 33.978 33.978 41.2766 25 41.2766C16.022 41.2766 8.7234 33.978 8.7234 25C8.7234 16.022 16.022 8.7234 25 8.7234ZM25 10.6383C22.828 10.6383 20.7705 11.1191 18.9266 11.9789C20.155 15.4768 22.2572 19.8936 25 19.8936C27.7471 19.8936 29.7794 15.4628 31.0374 11.9622C29.2027 11.113 27.1579 10.6383 25 10.6383ZM35.5055 15.2C32.5572 17.4493 29.0011 20.816 29.8491 23.4263C30.6982 26.0395 35.5415 26.6027 39.2597 26.7173C39.3265 26.1542 39.3617 25.5814 39.3617 25C39.3617 21.2083 37.8984 17.7647 35.5055 15.2ZM14.4705 15.2259C12.0918 17.7877 10.6383 21.221 10.6383 25C10.6383 25.5904 10.6745 26.1721 10.7434 26.7436C14.449 26.6559 19.2946 26.021 20.1417 23.4138C20.99 20.803 17.4098 17.5039 14.4705 15.2259ZM21.9373 19.8687C21.7445 19.8742 21.5578 19.9377 21.4017 20.0511C21.1963 20.2003 21.0586 20.4251 21.0189 20.6758C20.9792 20.9266 21.0408 21.1829 21.19 21.3883C21.3392 21.5937 21.5639 21.7315 21.8147 21.7712C22.0655 21.811 22.3218 21.7495 22.5272 21.6003C22.629 21.5264 22.7152 21.4332 22.7809 21.326C22.8466 21.2188 22.8905 21.0997 22.9102 20.9755C22.9299 20.8513 22.9249 20.7244 22.8956 20.6022C22.8662 20.4799 22.8131 20.3646 22.7391 20.2629C22.6476 20.1369 22.5268 20.0352 22.387 19.9665C22.2473 19.8979 22.093 19.8643 21.9373 19.8687ZM28.0627 19.8687C28.0401 19.8681 28.0175 19.8682 27.9949 19.8691C27.8508 19.8752 27.7099 19.9138 27.5828 19.982C27.4557 20.0501 27.3457 20.1461 27.2609 20.2628C27.1869 20.3645 27.1338 20.4798 27.1044 20.6021C27.075 20.7244 27.0701 20.8512 27.0897 20.9754C27.1094 21.0996 27.1534 21.2188 27.2191 21.326C27.2848 21.4332 27.371 21.5264 27.4728 21.6003C27.6782 21.7495 27.9345 21.811 28.1853 21.7713C28.436 21.7315 28.6608 21.5938 28.81 21.3884C28.9592 21.183 29.0208 20.9267 28.9811 20.676C28.9414 20.4252 28.8037 20.2004 28.5983 20.0512C28.4422 19.9378 28.2555 19.8742 28.0627 19.8687ZM25 21.5957C24.0971 21.5957 23.2313 21.9544 22.5928 22.5928C21.9544 23.2313 21.5957 24.0971 21.5957 25C21.5957 25.9029 21.9544 26.7688 22.5928 27.4072C23.2313 28.0456 24.0971 28.4043 25 28.4043C25.9029 28.4043 26.7688 28.0456 27.4072 27.4072C28.0456 26.7688 28.4043 25.9029 28.4043 25C28.4043 24.0971 28.0456 23.2313 27.4072 22.5928C26.7688 21.9544 25.9029 21.5957 25 21.5957ZM20.0748 25.6422C19.9789 25.6436 19.8838 25.6594 19.7927 25.689C19.6731 25.7279 19.5623 25.7899 19.4667 25.8715C19.371 25.9532 19.2924 26.0529 19.2353 26.1649C19.1782 26.277 19.1437 26.3991 19.1339 26.5245C19.124 26.6499 19.1389 26.7759 19.1778 26.8955C19.2562 27.137 19.4274 27.3374 19.6537 27.4527C19.8799 27.568 20.1427 27.5887 20.3841 27.5102C20.5037 27.4714 20.6145 27.4094 20.7101 27.3277C20.8057 27.2461 20.8844 27.1464 20.9414 27.0344C20.9985 26.9224 21.033 26.8002 21.0429 26.6748C21.0528 26.5495 21.0379 26.4234 20.999 26.3038C20.9359 26.1093 20.812 25.9401 20.6457 25.821C20.4794 25.702 20.2793 25.6393 20.0748 25.6422ZM29.9531 25.6431C29.744 25.634 29.5377 25.6937 29.3657 25.813C29.1938 25.9323 29.0656 26.1047 29.001 26.3037C28.9621 26.4233 28.9472 26.5494 28.9571 26.6747C28.967 26.8001 29.0015 26.9222 29.0585 27.0343C29.1156 27.1463 29.1943 27.246 29.2899 27.3276C29.3855 27.4093 29.4963 27.4713 29.6159 27.5101C29.8573 27.5886 30.1201 27.5679 30.3463 27.4526C30.5725 27.3374 30.7437 27.137 30.8222 26.8955C30.8611 26.7759 30.876 26.6499 30.8661 26.5245C30.8563 26.3991 30.8218 26.277 30.7647 26.1649C30.7076 26.0529 30.629 25.9532 30.5334 25.8715C30.4377 25.7899 30.3269 25.7279 30.2073 25.689C30.1251 25.6623 30.0395 25.6468 29.9531 25.6431ZM20.1506 28.5913C17.8538 28.6023 14.806 30.3819 12.446 31.9879C14.4703 35.6228 18.0268 38.2819 22.2484 39.0982C23.3112 35.5461 24.208 30.7346 21.9882 29.1219C21.4718 28.7467 20.846 28.5879 20.1506 28.5913ZM29.8332 28.5934C29.1332 28.5934 28.5043 28.7547 27.9879 29.1298C25.765 30.7448 26.7259 35.524 27.7657 39.0955C31.9878 38.2748 35.5432 35.6104 37.5636 31.9707C35.2226 30.3512 32.145 28.5934 29.8332 28.5933V28.5934ZM25 29.2106C24.7461 29.2106 24.5025 29.3115 24.323 29.4911C24.1434 29.6706 24.0426 29.9142 24.0426 30.1681C24.0426 30.422 24.1434 30.6655 24.323 30.8451C24.5025 31.0247 24.7461 31.1255 25 31.1255C25.2539 31.1255 25.4975 31.0247 25.677 30.8451C25.8566 30.6655 25.9574 30.422 25.9574 30.1681C25.9574 29.9142 25.8566 29.6706 25.677 29.4911C25.4975 29.3115 25.2539 29.2106 25 29.2106Z" fill="black"/>
<path d="M49.2754 24.6377C49.2754 38.2447 38.2447 49.2754 24.6377 49.2754C11.0307 49.2754 0 38.2447 0 24.6377C0 11.0307 11.0307 0 24.6377 0C38.2447 0 49.2754 11.0307 49.2754 24.6377ZM7.29399 24.6377C7.29399 34.2163 15.059 41.9814 24.6377 41.9814C34.2163 41.9814 41.9814 34.2163 41.9814 24.6377C41.9814 15.059 34.2163 7.29399 24.6377 7.29399C15.059 7.29399 7.29399 15.059 7.29399 24.6377Z" fill="#464646"/>
</svg>
