<svg width="52" height="52" viewBox="0 0 52 52" fill="none" xmlns="http://www.w3.org/2000/svg">
<path d="M12.6017 39.3953L21.724 30.2731M30.9035 44.2988L27.5656 31.8387M44.3018 30.9006L31.8416 27.5627M39.3983 12.5988L30.276 21.7211M21.0956 7.69531L24.4353 20.1564M7.69824 21.0927L20.1575 24.4315" stroke="black" stroke-width="6" stroke-miterlimit="10" stroke-linecap="round"/>
<path d="M26 1C12.1927 1 1 12.1927 1 26C1 39.8073 12.1927 51 26 51C39.8073 51 51 39.8073 51 26C51 12.1927 39.8073 1 26 1ZM26 44.7225C15.6604 44.7225 7.27753 36.3396 7.27753 26C7.27753 15.6604 15.6613 7.27753 26 7.27753C36.3387 7.27753 44.7225 15.6613 44.7225 26C44.7225 36.3387 36.3387 44.7225 26 44.7225Z" fill="#3F3F3F"/>
<path d="M25.9996 19.9531C24.3957 19.9531 22.8575 20.5903 21.7234 21.7244C20.5893 22.8585 19.9521 24.3967 19.9521 26.0006C19.9521 27.6045 20.5893 29.1427 21.7234 30.2768C22.8575 31.4109 24.3957 32.0481 25.9996 32.0481C27.6035 32.0481 29.1417 31.4109 30.2758 30.2768C31.41 29.1427 32.0471 27.6045 32.0471 26.0006C32.0471 24.3967 31.41 22.8585 30.2758 21.7244C29.1417 20.5903 27.6035 19.9531 25.9996 19.9531ZM25.9996 28.686C25.2874 28.686 24.6044 28.4031 24.1008 27.8995C23.5972 27.3958 23.3142 26.7128 23.3142 26.0006C23.3142 25.2884 23.5972 24.6054 24.1008 24.1018C24.6044 23.5981 25.2874 23.3152 25.9996 23.3152C26.7118 23.3152 27.3949 23.5981 27.8985 24.1018C28.4021 24.6054 28.685 25.2884 28.685 26.0006C28.685 26.7128 28.4021 27.3958 27.8985 27.8995C27.3949 28.4031 26.7118 28.686 25.9996 28.686Z" fill="#3F3F3F"/>
<path d="M26 51C39.8071 51 51 39.8071 51 26C51 12.1929 39.8071 1 26 1C12.1929 1 1 12.1929 1 26C1 39.8071 12.1929 51 26 51Z" stroke="black" stroke-width="0.666667" stroke-miterlimit="10"/>
<path d="M26 45.0663C36.5289 45.0663 45.0644 36.5309 45.0644 26.0019C45.0644 15.4729 36.5289 6.9375 26 6.9375C15.471 6.9375 6.93555 15.4729 6.93555 26.0019C6.93555 36.5309 15.471 45.0663 26 45.0663Z" stroke="black" stroke-width="0.666667" stroke-miterlimit="10"/>
<path d="M26.0006 32.0481C29.3405 32.0481 32.0481 29.3405 32.0481 26.0006C32.0481 22.6607 29.3405 19.9531 26.0006 19.9531C22.6607 19.9531 19.9531 22.6607 19.9531 26.0006C19.9531 29.3405 22.6607 32.0481 26.0006 32.0481Z" stroke="black" stroke-width="0.666667" stroke-miterlimit="10"/>
<path d="M26.0008 28.6911C27.4839 28.6911 28.6862 27.4888 28.6862 26.0057C28.6862 24.5226 27.4839 23.3203 26.0008 23.3203C24.5177 23.3203 23.3154 24.5226 23.3154 26.0057C23.3154 27.4888 24.5177 28.6911 26.0008 28.6911Z" stroke="black" stroke-width="0.666667" stroke-miterlimit="10"/>
</svg>
